<?xml version="1.0" encoding="utf-8"?>
<!-- Generator: Adobe Illustrator 22.0.1, SVG Export Plug-In . SVG Version: 6.00 Build 0)  -->
<svg version="1.1" id="Camada_1" xmlns="http://www.w3.org/2000/svg" xmlns:xlink="http://www.w3.org/1999/xlink" x="0px" y="0px"
	 viewBox="0 0 663 110" style="enable-background:new 0 0 663 110;" xml:space="preserve">
<style type="text/css">
	.st0{enable-background:new    ;}
	.st1{fill:#FE8D20;}
	.st2{fill:#FFFFFF;}
</style>
<g class="st0">
	<path class="st1" d="M51.6,17.4h14.4l31.9,84H81.2l-7.8-20.9H44.1l-7.7,20.9H19.6L51.6,17.4z M70.5,68.9l-11.6-33l-12.1,33H70.5z"
		/>
	<path class="st1" d="M123.6,47.5v53.8h-16.3v-84h12.7l43.8,55.1v-55H180v83.9h-13.2L123.6,47.5z"/>
	<path class="st1" d="M197.5,101.3v-84h16.3v84H197.5z"/>
	<path class="st1" d="M299.8,101.3V45.7l-21.6,41.4h-8.9l-21.6-41.4v55.6h-16.3v-84h17.5l24.8,47.8l25.1-47.8h17.4v84H299.8z"/>
	<path class="st1" d="M391.9,87v14.3h-58.3v-84h57.2v14.3h-40.9v20.2h35.4v13.2h-35.4V87H391.9z"/>
</g>
<g class="st0">
	<path class="st2" d="M401.8,101.3v-84h56.4v14.3h-40.1v21.6h33.4v13.2h-33.4v34.8H401.8z"/>
	<path class="st2" d="M469.6,101.3v-84H486V87h42.8v14.3H469.6z"/>
	<path class="st2" d="M538.7,101.3v-84H555v84H538.7z"/>
	<path class="st2" d="M581.2,17.4l20.9,31.2l20.8-31.2h17.6l-29.9,42.6l29,41.4H622l-19.9-30l-20,30h-17.7l29-41.4l-29.9-42.6H581.2
		z"/>
</g>
</svg>
